<svg width="1000" height="1000" viewBox="0 0 1000 1000" fill="none" xmlns="http://www.w3.org/2000/svg">
<path d="M331 925H250C239 925 230 916 230 905V850C222 847 214 844 206 840L167 879C159 887 146 887 139 879L80 821C76 817 74 812 74 807C74 802 76 797 80 793L119 754C115 746 112 738 109 730H54C43 730 34 721 34 710V628C34 617 43 608 54 608H109C112 600 115 592 119 584L80 544C76 540 74 535 74 530C74 525 76 520 80 516L138 458C142 454 147 452 152 452C157 452 162 454 166 458L205 497C213 493 221 490 229 487V432C229 421 238 412 249 412H331C342 412 351 421 351 432V487C359 490 367 493 375 497L414 458C422 450 434 450 442 458L500 516C504 520 506 525 506 530C506 535 504 540 500 544L461 583C465 591 468 599 471 607H526C537 607 546 616 546 627V709C546 720 537 729 526 729H471C468 737 465 745 461 753L500 792C504 796 506 801 506 806C506 811 504 816 500 820L442 878C434 886 422 886 414 878L375 839C367 843 359 846 351 849V904C351 916 342 925 331 925ZM270 885H312V835C312 826 318 818 327 816C342 812 356 806 369 799C377 794 387 795 394 802L430 838L460 808L424 772C417 765 416 755 421 747C429 734 435 720 438 705C440 696 448 690 457 690H507V648H457C448 648 440 642 438 633C434 618 428 604 421 591C416 583 417 573 424 566L460 530L430 500L394 536C387 543 377 544 369 539C356 531 342 525 327 522C318 520 312 512 312 503V452H270V503C270 512 264 520 255 522C240 526 226 532 213 539C205 544 195 543 188 536L152 500L122 530L158 566C165 573 166 583 161 591C153 604 147 618 144 633C142 642 134 648 125 648H75V690H125C134 690 142 696 144 705C148 720 154 734 161 747C166 755 165 765 158 772L122 808L152 838L188 802C195 795 205 794 213 799C226 807 240 813 255 816C264 818 270 826 270 835V885ZM290 757C241 757 201 717 201 668C201 619 241 579 290 579C339 579 379 619 379 668C379 717 339 757 290 757ZM290 620C263 620 241 642 241 669C241 696 263 718 290 718C317 718 339 696 339 669C339 642 317 620 290 620ZM750 588H668C657 588 648 579 648 568V513C640 510 632 507 624 503L585 542C577 550 564 550 557 542L499 484C495 480 493 475 493 470C493 465 495 460 499 456L538 417C534 409 531 401 528 393H473C462 393 453 384 453 373V291C453 280 462 271 473 271H528C531 263 534 255 538 247L499 208C495 204 493 199 493 194C493 189 495 184 499 180L557 122C561 118 566 116 571 116C576 116 581 118 585 122L624 161C632 157 640 154 648 151V95C648 84 657 75 668 75H750C761 75 770 84 770 95V150C778 153 786 156 794 160L833 121C841 113 853 113 861 121L919 179C923 183 925 188 925 193C925 198 923 203 919 207L880 246C884 254 887 262 890 270H945C956 270 965 279 965 290V372C965 383 956 392 945 392H890C887 400 884 408 880 416L919 455C923 459 925 464 925 469C925 474 923 479 919 483L861 541C853 549 841 549 833 541L794 502C786 506 778 509 770 512V567C770 579 761 588 750 588ZM689 548H730V497C730 488 736 480 745 478C760 474 774 468 787 461C795 456 805 457 812 464L848 500L878 470L842 434C835 427 834 417 839 409C847 396 853 382 856 367C858 358 866 352 875 352H925V310H875C866 310 858 304 856 295C852 280 846 266 839 253C834 245 835 235 842 228L878 192L848 162L812 198C805 205 795 206 787 201C774 193 760 187 745 184C736 182 730 174 730 165V115H688V165C688 174 682 182 673 184C658 188 644 194 631 201C623 206 613 205 606 198L570 162L540 191L576 227C583 234 584 244 579 252C571 265 565 279 562 294C560 303 552 309 543 309H493V351H543C552 351 560 357 562 366C566 381 572 395 579 408C584 416 583 426 576 433L542 470L572 500L608 464C615 457 625 456 633 461C646 469 660 475 675 478C684 480 690 488 690 497V548H689ZM710 420C661 420 621 380 621 331C621 282 661 242 710 242C759 242 799 282 799 331C799 380 759 420 710 420ZM710 283C683 283 661 305 661 332C661 359 683 380 710 380C737 380 759 358 759 331C759 304 736 283 710 283Z" fill="black"/>
</svg>
