<?xml version="1.0" standalone="no"?>
<!DOCTYPE svg PUBLIC "-//W3C//DTD SVG 20010904//EN"
 "http://www.w3.org/TR/2001/REC-SVG-20010904/DTD/svg10.dtd">
<svg version="1.0" xmlns="http://www.w3.org/2000/svg"
 width="491.000000pt" height="508.000000pt" viewBox="0 0 491.000000 508.000000"
 preserveAspectRatio="xMidYMid meet">

<g transform="translate(0.000000,508.000000) scale(0.100000,-0.100000)"
fill="#000000" stroke="none">
<path d="M2702 4560 c-12 -5 -27 -22 -33 -37 -6 -15 -19 -48 -29 -73 -10 -25
-35 -89 -56 -142 -21 -54 -43 -98 -50 -98 -10 0 -49 -17 -117 -52 -26 -13
-100 -13 -105 1 -2 6 -12 11 -22 11 -10 0 -35 9 -57 20 -117 60 -184 84 -223
81 -15 -1 -111 -91 -229 -215 -60 -63 -63 -68 -56 -102 3 -20 10 -44 15 -53
43 -82 110 -247 110 -269 0 -21 -38 -121 -52 -136 -4 -6 -8 -16 -8 -24 0 -16
-24 -42 -39 -42 -6 0 -20 -4 -31 -10 -11 -5 -29 -14 -40 -20 -11 -5 -24 -10
-30 -10 -6 0 -29 -9 -53 -19 -23 -11 -64 -27 -90 -37 -82 -29 -87 -44 -87
-246 0 -155 2 -176 20 -205 11 -18 26 -33 34 -33 32 0 41 -31 42 -159 2 -151
30 -274 86 -384 10 -20 8 -22 -157 -177 -44 -41 -114 -106 -155 -145 -41 -38
-111 -104 -156 -145 -44 -41 -142 -133 -217 -204 -76 -70 -149 -138 -164 -150
-15 -11 -48 -42 -73 -67 -25 -25 -84 -81 -131 -125 -303 -280 -319 -296 -354
-367 -55 -109 -45 -215 29 -316 12 -16 194 -197 223 -221 26 -22 63 -40 84
-40 10 0 21 -4 24 -10 8 -13 122 -13 130 0 3 5 17 10 31 10 13 0 24 5 24 10 0
6 9 10 20 10 22 0 110 85 275 264 55 59 118 127 140 150 143 152 277 297 306
330 18 21 61 67 95 103 118 121 174 184 174 193 0 12 -81 80 -96 80 -7 0 -24
-15 -39 -32 -15 -18 -82 -91 -149 -162 -66 -72 -150 -161 -186 -200 -36 -38
-94 -99 -130 -136 -36 -37 -76 -81 -90 -100 -14 -18 -73 -83 -133 -144 -59
-61 -122 -130 -140 -153 -17 -23 -43 -48 -57 -55 -14 -7 -27 -15 -30 -18 -3
-3 -21 -11 -42 -18 -29 -10 -44 -10 -77 0 -23 7 -41 16 -41 20 0 5 -6 8 -13 8
-15 0 -197 184 -197 200 0 5 -4 10 -10 10 -5 0 -10 9 -10 19 0 11 -4 23 -10
26 -17 10 -11 72 10 110 21 38 96 113 245 250 49 44 119 109 156 145 37 36
106 101 154 145 48 44 118 109 156 145 37 36 92 88 122 115 58 54 252 236 406
380 53 50 121 114 151 142 65 61 68 85 23 183 -63 139 -75 196 -70 348 5 141
12 191 39 252 8 19 21 49 27 65 23 54 100 164 159 223 145 148 353 229 572
223 36 -1 81 -6 100 -10 l35 -7 -230 -232 c-126 -128 -234 -244 -239 -257 -8
-19 6 -70 64 -247 40 -123 79 -235 87 -250 14 -30 22 -33 299 -127 100 -33
195 -61 210 -61 24 0 61 32 221 192 106 106 196 189 200 184 4 -4 -2 -55 -14
-114 -56 -274 -252 -501 -505 -586 -154 -51 -273 -57 -433 -21 -60 14 -118 25
-127 25 -17 0 -179 -159 -244 -240 -16 -19 -37 -42 -46 -51 -10 -9 -18 -21
-18 -26 0 -12 76 -83 89 -83 5 0 62 56 126 125 131 140 124 137 242 109 61
-15 212 -15 317 -1 19 2 54 -43 55 -71 1 -7 13 -38 28 -68 l26 -54 186 -2
c102 0 197 0 210 1 27 3 51 23 51 45 0 8 5 18 10 21 6 3 10 13 10 21 0 8 9 34
20 56 11 23 20 48 20 55 0 7 4 21 9 31 5 9 19 39 31 67 23 52 44 74 72 75 9 0
36 10 60 21 23 12 49 25 57 28 16 8 81 -10 81 -21 0 -5 6 -8 14 -8 7 0 44 -14
82 -30 38 -17 80 -36 94 -42 14 -6 33 -14 42 -19 46 -24 66 -12 208 129 153
152 158 160 121 231 -10 20 -29 61 -41 91 -12 30 -33 79 -46 108 -25 56 -30
91 -15 120 5 9 19 40 31 67 12 28 25 57 29 65 7 13 106 56 219 96 23 8 61 25
85 37 l42 22 3 207 2 206 -26 21 c-15 12 -32 21 -38 21 -7 0 -31 9 -54 20 -22
11 -48 20 -57 20 -8 0 -15 5 -15 10 0 6 -9 10 -20 10 -11 0 -28 4 -38 9 -9 5
-30 14 -47 21 -16 7 -37 16 -45 20 -8 4 -26 37 -40 73 -14 36 -28 69 -32 73
-14 14 -8 74 11 117 49 107 111 259 111 274 0 9 -64 80 -142 159 -162 162
-150 157 -265 103 -34 -16 -66 -29 -70 -29 -15 0 -63 -25 -63 -32 0 -5 -8 -8
-18 -8 -10 0 -23 -5 -29 -11 -14 -14 -96 -14 -101 0 -2 6 -12 11 -23 11 -25 0
-111 40 -125 59 -6 8 -17 36 -24 63 -8 26 -16 48 -20 48 -4 0 -13 23 -20 50
-7 28 -17 50 -22 50 -4 0 -8 11 -8 24 0 14 -4 28 -10 31 -5 3 -10 13 -10 21 0
9 -8 23 -17 32 -14 15 -44 17 -207 19 -105 1 -201 -2 -214 -7z m332 -142 c9
-12 16 -28 16 -35 0 -7 8 -32 19 -56 10 -23 32 -75 47 -115 31 -78 65 -122 95
-122 10 0 21 -4 24 -10 3 -5 15 -10 26 -10 10 0 19 -4 19 -10 0 -5 7 -10 15
-10 8 0 40 -11 71 -25 75 -33 100 -32 185 10 40 19 76 35 80 35 5 0 37 14 73
31 l64 31 86 -86 c47 -47 86 -90 86 -96 0 -6 -4 -18 -9 -28 -5 -9 -18 -38 -30
-64 -36 -83 -63 -142 -75 -167 -14 -31 -13 -108 2 -123 7 -7 12 -20 12 -30 0
-10 5 -18 10 -18 6 0 10 -7 10 -15 0 -8 4 -23 9 -33 5 -9 21 -43 36 -75 30
-65 22 -60 215 -135 l125 -49 3 -121 3 -122 -33 -20 c-18 -11 -39 -20 -46 -20
-7 0 -31 -9 -55 -19 -23 -10 -62 -26 -87 -36 -81 -30 -105 -45 -117 -72 -7
-15 -13 -33 -13 -40 0 -7 -4 -13 -10 -13 -5 0 -10 -9 -10 -19 0 -11 -4 -23
-10 -26 -5 -3 -10 -17 -10 -31 0 -13 -4 -24 -10 -24 -5 0 -10 -6 -10 -13 0 -8
-7 -28 -16 -46 -23 -46 -15 -80 47 -203 5 -10 9 -25 9 -33 0 -8 5 -15 10 -15
6 0 10 -7 10 -15 0 -8 9 -30 20 -50 11 -20 20 -40 20 -45 0 -13 -165 -180
-178 -180 -10 0 -73 26 -167 70 -126 58 -167 64 -223 30 -18 -11 -38 -20 -46
-20 -20 0 -161 -67 -173 -82 -8 -11 -72 -172 -112 -280 l-11 -28 -124 0 -125
0 -15 32 c-30 60 -24 72 61 114 43 22 87 47 97 57 11 9 23 17 28 17 19 0 169
147 196 192 9 16 20 28 24 28 4 0 8 6 8 14 0 12 114 76 135 76 4 0 26 14 50
30 24 17 46 30 50 30 18 0 153 124 203 186 30 37 122 191 122 204 0 6 9 29 19
53 24 52 28 73 48 220 14 100 14 132 4 205 -7 48 -17 95 -22 104 -5 10 -9 27
-9 37 0 21 -8 44 -48 131 -23 50 -81 150 -88 150 -11 0 -54 -25 -54 -31 0 -4
-9 -10 -19 -14 -11 -3 -22 -13 -25 -21 -6 -16 17 -66 42 -93 7 -7 16 -26 19
-42 3 -16 9 -29 14 -29 5 0 9 -8 9 -18 0 -10 4 -22 10 -28 5 -5 10 -24 12 -42
1 -19 5 -35 9 -38 13 -8 20 -229 9 -299 -19 -121 -22 -135 -31 -135 -5 0 -9
-5 -9 -11 0 -15 -63 -143 -72 -147 -4 -2 -8 -10 -8 -17 0 -20 -179 -199 -219
-218 l-33 -16 5 37 c4 20 13 80 21 132 9 57 13 121 10 160 l-6 65 58 61 c33
33 65 70 72 82 15 26 16 59 2 67 -5 3 -10 17 -10 30 0 13 -4 27 -10 30 -5 3
-10 15 -10 26 0 10 -4 27 -9 37 -5 9 -15 37 -22 62 -7 25 -16 50 -19 55 -4 6
-20 52 -36 104 -15 51 -38 102 -49 113 -12 11 -55 31 -96 45 -40 13 -83 28
-94 33 -57 24 -277 90 -302 90 -21 0 -42 -11 -67 -35 -39 -37 -48 -38 -121
-13 -16 5 -83 12 -148 15 -65 3 -116 10 -115 14 2 5 29 31 61 58 61 51 189
119 267 142 25 7 50 16 56 21 7 5 78 9 158 9 135 0 188 -7 238 -32 10 -5 29
-9 43 -9 14 0 25 -4 25 -10 0 -5 9 -10 20 -10 11 0 20 -4 20 -10 0 -5 9 -10
20 -10 11 0 20 -4 20 -10 0 -5 4 -10 10 -10 5 0 38 -20 71 -45 l62 -45 15 22
c9 13 29 35 45 50 26 25 27 29 14 43 -9 8 -19 15 -24 15 -4 0 -21 13 -38 28
-41 38 -189 108 -293 139 -74 22 -108 26 -227 27 -201 1 -353 -39 -482 -126
-23 -15 -44 -28 -47 -28 -4 0 -21 -12 -38 -27 -88 -75 -141 -131 -173 -178
-30 -46 -47 -59 -125 -98 -90 -45 -90 -45 -90 -20 0 13 9 42 21 65 26 51 25
58 -46 213 -49 107 -65 144 -65 152 0 12 169 183 180 183 6 0 10 -4 10 -10 0
-5 7 -10 16 -10 8 0 43 -13 77 -29 199 -92 211 -94 298 -52 23 12 47 21 53 21
6 0 41 15 77 33 76 36 79 41 138 197 21 58 45 117 52 133 l12 27 118 0 c110 0
119 -1 133 -22z m-179 -918 c3 -5 16 -10 29 -10 12 0 26 -4 32 -8 5 -5 70 -29
145 -53 l137 -43 61 -183 c34 -100 61 -188 61 -194 0 -18 -325 -339 -343 -339
-14 0 -367 116 -371 122 -1 2 -12 37 -25 78 -13 41 -27 83 -32 92 -5 10 -9 27
-9 37 0 11 -4 23 -10 26 -5 3 -10 17 -10 30 0 13 -4 27 -10 30 -5 3 -10 17
-10 30 0 13 -5 27 -11 30 -5 4 -9 11 -7 16 6 18 343 349 355 349 6 0 15 -4 18
-10z m-1172 -246 c4 -4 -2 -19 -12 -33 -10 -14 -34 -55 -52 -91 -53 -105 -59
-105 -59 -6 l0 85 53 25 c59 28 61 28 70 20z m714 -254 c8 -25 18 -54 22 -65
5 -11 14 -38 20 -60 7 -22 16 -49 21 -60 4 -11 13 -38 19 -61 6 -22 21 -50 33
-61 13 -11 93 -44 179 -73 85 -28 162 -56 170 -60 11 -7 2 -21 -41 -65 -30
-30 -62 -55 -72 -55 -30 0 -355 110 -366 123 -6 7 -38 93 -71 192 l-60 180 57
58 c31 31 61 56 65 54 5 -1 16 -23 24 -47z"/>
<path d="M2810 3268 c-26 -13 -57 -41 -75 -66 -26 -38 -30 -53 -30 -110 0 -57
5 -74 29 -112 48 -77 118 -108 211 -94 52 7 116 58 142 111 26 56 21 152 -11
200 -40 59 -88 87 -160 91 -49 3 -70 -1 -106 -20z m141 -126 c17 -14 22 -28
21 -57 -2 -49 -17 -65 -61 -65 -73 0 -106 69 -55 116 30 29 64 31 95 6z"/>
<path d="M1348 1621 l-522 -523 45 -43 c24 -24 47 -44 51 -45 8 0 1031 1026
1036 1038 1 4 -18 28 -43 52 l-46 45 -521 -524z"/>
<path d="M621 893 l-44 -45 47 -44 c25 -24 48 -44 50 -44 10 0 86 80 86 90 0
12 -77 90 -88 89 -4 0 -27 -21 -51 -46z"/>
</g>
</svg>
