<svg width="512" height="516" viewBox="0 0 512 516" fill="none" xmlns="http://www.w3.org/2000/svg">
<path fill-rule="evenodd" clip-rule="evenodd" d="M256 512C397.389 512 512 397.389 512 256C512 114.611 397.389 0 256 0C114.611 0 0 114.611 0 256C0 397.389 114.611 512 256 512ZM338.739 290.842L378.266 330.47C386.125 338.381 385.869 351.462 377.754 359.654L366.438 370.714L366.182 370.483C356.7 377.762 345.436 382.36 333.568 383.795C331.008 384.077 271.232 389.683 197.043 315.341C143.36 261.555 123.571 221.901 128.819 178.534C129.408 173.107 130.739 167.731 132.915 162.074C135.219 156.134 138.342 150.605 142.08 145.843L141.773 145.536L152.909 134.298C161.075 126.106 174.131 125.875 181.965 133.76L221.517 173.389C229.376 181.274 229.146 194.33 221.005 202.522L214.4 209.101L201.037 222.49C201.764 223.764 202.481 225.044 203.187 226.33L203.213 226.406C210.202 239.027 219.776 256.282 237.901 274.432C256.026 292.608 273.229 302.182 285.824 309.171L289.741 311.373L309.658 291.405C317.824 283.213 330.854 282.982 338.739 290.867V290.842Z" fill="#E46E23"/>
</svg>
