<?xml version="1.0" standalone="no"?>
<!DOCTYPE svg PUBLIC "-//W3C//DTD SVG 20010904//EN"
 "http://www.w3.org/TR/2001/REC-SVG-20010904/DTD/svg10.dtd">
<svg version="1.0" xmlns="http://www.w3.org/2000/svg"
 width="502.000000pt" height="497.000000pt" viewBox="0 0 502.000000 497.000000"
 preserveAspectRatio="xMidYMid meet">

<g transform="translate(0.000000,497.000000) scale(0.100000,-0.100000)"
fill="#000000" stroke="none">
<path d="M1700 4669 c-83 -10 -130 -21 -130 -30 0 -5 -7 -9 -16 -9 -25 0 -44
-26 -44 -59 0 -27 23 -55 174 -204 95 -94 181 -184 191 -199 61 -97 25 -204
-80 -237 -61 -19 -111 8 -217 115 -49 48 -88 92 -88 96 0 4 -7 8 -15 8 -8 0
-15 4 -15 9 0 8 -105 116 -149 154 -36 29 -101 15 -101 -22 0 -6 -4 -11 -8
-11 -4 0 -16 -36 -26 -81 -21 -93 -20 -299 2 -321 6 -6 12 -25 12 -40 0 -15 5
-28 10 -28 6 0 10 -11 10 -25 0 -14 3 -25 8 -25 9 0 42 -57 42 -74 0 -6 9 -18
20 -26 11 -8 20 -18 20 -22 0 -5 61 -67 134 -134 6 -5 26 -17 44 -25 17 -7 32
-17 32 -21 0 -5 8 -8 19 -8 10 0 24 -7 31 -15 7 -8 23 -15 36 -15 13 0 24 -4
24 -9 0 -13 70 -22 213 -27 85 -4 127 -2 127 5 0 6 16 11 35 11 22 0 35 -5 35
-13 0 -15 -45 -57 -60 -57 -6 0 -10 -4 -10 -9 0 -5 -49 -58 -110 -119 l-110
-111 0 -298 c0 -164 -4 -313 -9 -331 -14 -48 -159 -211 -188 -212 -6 0 -18 6
-25 13 -7 7 -25 21 -39 30 -50 33 -74 18 -265 -173 -99 -97 -185 -187 -191
-199 -15 -25 -17 -71 -3 -71 6 0 10 -6 10 -14 0 -8 5 -16 11 -18 7 -2 -153
-169 -355 -370 -201 -202 -366 -372 -366 -377 0 -12 78 -91 89 -91 11 0 291
281 291 291 0 5 5 9 11 9 12 0 39 25 39 36 0 3 10 15 23 26 12 10 103 98 201
196 101 100 181 172 183 165 3 -7 11 -13 19 -13 8 0 14 -4 14 -9 0 -5 144
-152 320 -328 176 -176 320 -326 320 -333 0 -14 -186 -200 -200 -200 -6 0 -10
-5 -10 -11 0 -6 -100 -110 -222 -231 -194 -193 -219 -222 -205 -233 10 -7 17
-16 17 -20 0 -14 54 -55 73 -55 9 0 17 7 17 15 0 8 4 15 9 15 12 0 101 91 101
102 0 4 7 8 15 8 8 0 15 4 15 9 0 7 93 103 299 305 45 44 81 83 81 88 0 4 5 8
11 8 12 0 39 25 39 36 0 4 12 17 28 30 28 24 62 32 62 14 0 -5 20 -10 45 -10
25 0 45 5 45 10 0 6 5 10 11 10 12 0 39 25 39 36 0 3 10 15 23 26 45 38 247
242 247 250 0 4 6 8 13 8 8 0 20 11 27 25 7 14 17 25 22 25 18 0 7 52 -17 78
-14 15 -25 34 -25 43 0 9 35 51 77 95 l77 79 190 5 c105 3 199 9 209 14 11 5
115 105 232 222 117 118 219 214 227 214 22 0 66 -54 57 -70 -24 -50 -39 -262
-19 -275 6 -3 10 -28 10 -55 0 -27 5 -52 10 -55 6 -3 10 -15 10 -26 0 -10 5
-19 10 -19 6 0 10 -9 10 -19 0 -11 4 -22 9 -26 6 -3 16 -18 24 -33 7 -15 20
-38 28 -51 20 -35 138 -151 152 -151 7 0 19 -9 27 -20 8 -11 25 -20 37 -20 13
0 23 -3 23 -7 0 -11 58 -43 76 -43 8 0 22 -4 32 -9 48 -25 103 -32 217 -28
125 5 206 15 215 26 3 3 14 11 25 17 14 8 21 23 23 51 3 40 2 42 -181 225
-102 102 -190 195 -196 206 -13 25 -15 132 -2 132 5 0 11 10 13 22 2 15 11 24
26 26 12 2 22 8 22 13 0 5 8 9 18 9 10 0 23 5 28 10 8 8 19 8 38 0 15 -5 36
-10 46 -10 11 0 99 -80 214 -195 182 -182 198 -195 232 -195 27 0 37 5 41 20
3 11 9 20 14 20 5 0 9 16 9 35 0 19 4 35 9 35 5 0 11 24 15 53 3 28 9 72 12
96 8 52 -18 199 -47 266 -4 11 -10 29 -11 40 -2 11 -13 31 -25 45 -13 14 -23
30 -23 37 0 7 -4 13 -10 13 -5 0 -10 4 -10 9 0 4 -16 25 -35 45 -19 21 -35 41
-35 46 0 5 -8 11 -19 15 -10 3 -32 18 -48 33 -16 15 -40 33 -54 41 -65 39
-112 61 -130 61 -10 0 -19 5 -19 10 0 6 -22 10 -48 10 -26 0 -53 5 -59 11 -10
10 -130 7 -256 -7 -51 -5 -61 -3 -78 15 -25 27 -24 39 6 67 14 13 25 30 25 39
0 8 4 15 9 15 5 0 11 15 14 33 4 17 9 47 13 65 4 21 2 32 -5 32 -6 0 -11 9
-11 20 0 32 -19 57 -117 156 l-93 93 0 60 c0 34 -4 61 -10 61 -5 0 -10 9 -10
20 0 11 -40 60 -96 116 -83 85 -95 100 -93 128 4 46 -19 119 -48 152 -108 127
-149 154 -240 162 l-63 5 -98 97 c-60 59 -110 100 -128 104 -58 15 -116 18
-127 7 -6 -6 -21 -11 -34 -11 -13 0 -23 -4 -23 -10 0 -5 -5 -10 -11 -10 -6 0
-25 -16 -43 -35 -19 -19 -38 -35 -44 -35 -6 0 -16 -9 -22 -20 -16 -30 -35 -25
-91 28 -50 47 -51 47 -45 97 15 128 18 247 7 258 -6 6 -11 30 -11 54 0 24 -4
43 -10 43 -5 0 -10 9 -10 20 0 28 -41 110 -86 172 -48 66 -151 168 -170 168
-8 0 -14 4 -14 9 0 5 -11 12 -25 15 -14 4 -25 11 -25 16 0 6 -9 10 -19 10 -11
0 -23 5 -26 10 -3 6 -15 10 -26 10 -10 0 -19 4 -19 9 0 18 -222 40 -310 30z
m205 -139 c3 -5 15 -10 27 -10 11 0 34 -7 51 -16 56 -30 67 -34 77 -34 13 0
41 -24 119 -101 64 -63 116 -152 133 -231 17 -74 15 -200 -5 -283 -9 -38 -14
-78 -11 -89 4 -11 40 -53 80 -93 41 -40 74 -76 74 -81 0 -5 -9 -19 -19 -31
-16 -18 -25 -21 -59 -15 -48 7 -130 -9 -190 -38 l-43 -21 -33 32 c-38 37 -45
37 -166 6 -68 -17 -169 -16 -245 2 -54 13 -145 53 -145 64 0 5 -6 9 -13 9 -15
0 -147 127 -147 141 0 6 -9 19 -19 30 -10 11 -26 41 -36 67 -9 26 -20 55 -26
64 -9 18 -13 211 -4 220 3 2 71 -62 152 -144 82 -81 156 -148 166 -148 9 0 17
-4 17 -9 0 -19 166 -39 183 -22 6 6 24 11 39 11 15 0 28 5 28 10 0 6 6 10 13
10 18 0 94 75 102 100 4 11 10 20 14 20 5 0 12 24 16 53 12 87 13 117 4 117
-5 0 -9 16 -9 35 0 19 -4 35 -10 35 -5 0 -10 7 -10 15 0 14 -192 220 -272 293
-16 14 -28 29 -28 34 0 12 188 10 195 -2z m949 -835 c14 -14 28 -25 31 -25 9
0 35 -27 35 -36 0 -4 16 -20 35 -37 42 -35 44 -56 8 -82 -14 -11 -68 -62 -119
-112 -51 -51 -100 -93 -109 -93 -16 0 -185 160 -185 175 0 16 201 206 232 220
44 19 43 19 72 -10z m356 -215 c0 -5 5 -10 11 -10 5 0 32 -23 60 -52 35 -37
49 -59 49 -80 0 -15 -4 -28 -10 -28 -5 0 -10 -5 -10 -11 0 -12 -273 -289 -284
-289 -15 0 -176 169 -176 184 0 17 113 136 129 136 5 0 11 5 13 12 2 6 33 42
69 79 59 62 67 68 107 68 23 1 42 -3 42 -9z m-660 -198 c65 -64 126 -124 136
-133 61 -54 374 -380 374 -389 0 -14 -61 -70 -76 -70 -7 0 -14 -4 -16 -9 -10
-28 -165 -20 -197 10 -11 11 -24 19 -28 19 -4 0 -24 17 -44 38 -20 20 -71 70
-113 110 -42 41 -76 77 -76 82 0 12 -70 81 -98 98 -32 18 -59 15 -82 -10 -26
-28 -25 -67 3 -100 42 -50 52 -63 70 -90 9 -15 17 -34 17 -43 0 -8 5 -15 10
-15 6 0 10 -13 10 -30 0 -16 4 -30 8 -30 5 0 16 -40 26 -89 19 -94 16 -131
-20 -236 -8 -23 -14 -48 -14 -58 0 -9 -3 -17 -8 -17 -4 0 -15 -17 -24 -37 -9
-21 -30 -53 -48 -71 -34 -36 -33 -38 15 -87 44 -43 53 -48 68 -33 7 7 22 28
32 46 11 17 23 32 27 32 4 0 8 5 8 11 0 6 9 23 19 38 11 15 23 39 26 54 4 15
11 27 16 27 5 0 9 16 9 35 0 19 4 35 8 35 10 0 32 140 32 202 0 47 15 72 26
44 3 -9 15 -16 25 -16 10 0 19 -4 19 -10 0 -5 7 -10 15 -10 8 0 15 -4 15 -10
0 -5 8 -10 18 -10 9 0 30 -7 46 -15 15 -8 44 -15 62 -15 27 0 41 -8 65 -35 17
-19 36 -35 41 -35 6 0 18 -8 27 -18 18 -19 84 -52 105 -52 15 0 26 -21 26 -52
0 -27 53 -102 93 -130 39 -28 87 -73 87 -82 0 -3 -92 -98 -204 -211 l-205
-205 -201 0 -201 0 -60 -62 c-33 -35 -74 -82 -92 -105 -18 -23 -38 -43 -45
-43 -13 0 -81 66 -117 113 -11 15 -24 27 -28 27 -10 0 -37 26 -37 36 0 8 -52
54 -62 54 -5 0 -8 4 -8 8 0 5 -85 94 -189 199 -155 156 -189 194 -184 212 3
11 11 21 18 21 7 0 15 4 17 9 5 14 58 78 108 131 25 26 51 56 58 68 9 16 12
103 12 336 l0 315 82 80 c46 45 86 81 90 81 5 0 8 7 8 15 0 8 4 15 9 15 12 0
81 69 81 81 0 5 5 9 10 9 6 0 29 20 53 44 46 49 69 55 171 48 l58 -4 118 -116z
m915 -186 c116 -115 121 -102 -134 -357 -220 -221 -235 -231 -281 -192 -19 17
-19 17 0 35 10 10 24 18 30 18 14 0 118 104 143 143 10 15 15 33 11 39 -14 23
-39 51 -78 88 l-39 38 129 131 c71 72 132 131 136 131 4 0 41 -33 83 -74z
m212 -355 c66 -66 83 -92 83 -121 0 -22 -40 -90 -53 -90 -4 0 -68 -61 -143
-135 -74 -74 -143 -139 -152 -144 -30 -16 -66 -1 -117 48 -78 73 -96 122 -55
151 11 8 20 18 20 23 0 9 25 37 34 37 3 0 69 65 148 145 79 79 151 144 160
145 10 0 44 -26 75 -59z m97 -456 c34 -32 56 -45 77 -45 16 0 29 5 29 10 0 6
20 10 44 10 25 0 48 5 51 10 3 6 44 10 91 10 49 0 84 -4 84 -10 0 -5 15 -10
34 -10 78 0 290 -142 311 -210 3 -11 11 -20 16 -20 5 0 9 -7 9 -15 0 -8 5 -15
10 -15 6 0 10 -9 10 -20 0 -11 3 -20 8 -20 12 0 34 -71 39 -127 3 -29 9 -53
14 -53 5 0 9 -24 9 -54 0 -90 -14 -84 -180 84 -81 83 -155 150 -164 150 -9 0
-16 5 -16 10 0 6 -16 10 -35 10 -19 0 -46 5 -60 12 -21 9 -31 9 -46 0 -10 -7
-37 -12 -59 -12 -22 0 -40 -4 -40 -10 0 -5 -7 -10 -15 -10 -21 0 -115 -98
-115 -120 0 -10 -5 -20 -11 -22 -14 -5 -14 -211 1 -216 5 -2 10 -8 10 -14 0
-5 6 -15 13 -23 6 -7 23 -27 36 -45 31 -40 91 -100 100 -100 4 0 14 -11 21
-25 7 -14 17 -25 21 -25 11 0 59 -49 59 -60 0 -6 5 -10 11 -10 14 0 39 -25 39
-39 0 -13 -186 -15 -194 -2 -3 4 -24 11 -46 15 -22 3 -40 11 -40 16 0 6 -9 10
-20 10 -11 0 -20 5 -20 10 0 6 -10 10 -23 10 -12 0 -29 9 -37 21 -8 11 -30 27
-47 36 -18 8 -33 19 -33 25 0 9 -11 24 -47 63 -13 13 -23 28 -23 34 0 5 -3 11
-7 13 -13 5 -43 68 -43 89 0 10 -4 19 -8 19 -12 0 -34 169 -26 205 3 17 8 49
11 73 3 23 9 42 14 42 12 0 11 77 -1 100 -6 11 -26 35 -45 53 -19 19 -35 38
-35 42 0 16 185 195 201 195 9 0 37 -20 63 -45z m-1920 -550 c223 -223 406
-412 406 -421 0 -17 -232 -254 -249 -254 -13 0 -641 626 -641 640 0 6 -4 10
-9 10 -9 0 -181 166 -181 175 0 8 252 255 260 255 4 0 190 -182 414 -405z"/>
</g>
</svg>
